# xmcd
#
# Track frame offsets: 
#        150
#        21876
#        38722
#        57868
#        75760
#        91380
#        110542
#        126593
#        143637
#        161065
#
# Disc length: 2364 seconds
#
# Revision: 3
# Processed by: cddbd v1.5.2PL0 Copyright (c) Steve Scherf et al.
# Submitted via: ExactAudioCopyFreeDBPlugin 1.0
#
DISCID=7a093a0a
DTITLE=Beyond - 猶豫
DYEAR=2004
DGENRE=流行
TTITLE0=AMANI
TTITLE1=堅持信念
TTITLE2=不再猶豫
TTITLE3=係要聽ROCK N' ROLL
TTITLE4=我早應該習慣
TTITLE5=誰伴我闖蕩
TTITLE6=高溫派對
TTITLE7=誰來主宰
TTITLE8=愛妳一切
TTITLE9=完全的擁有
EXTD=YEAR: 1991
EXTT0=
EXTT1=
EXTT2=
EXTT3=
EXTT4=
EXTT5=
EXTT6=
EXTT7=
EXTT8=
EXTT9=
PLAYORDER=
